<svg width="96" height="96" viewBox="0 0 96 96" xmlns="http://www.w3.org/2000/svg">
  <!-- 背景圆形 -->
  <circle cx="48" cy="48" r="45" fill="#409EFF" stroke="#2E7CE8" stroke-width="3"/>
  
  <!-- 建筑工人帽子 -->
  <ellipse cx="48" cy="26" rx="16" ry="10" fill="#FFD700"/>
  <rect x="40" y="21" width="16" height="8" fill="#FFA500" rx="3"/>
  
  <!-- 建筑工人头部 -->
  <circle cx="48" cy="37" r="11" fill="#FFDBAC"/>
  
  <!-- 眼睛 -->
  <circle cx="44" cy="34" r="2" fill="#000"/>
  <circle cx="52" cy="34" r="2" fill="#000"/>
  
  <!-- 嘴巴 -->
  <path d="M 42 40 Q 48 43 54 40" stroke="#000" stroke-width="1.5" fill="none"/>
  
  <!-- 身体 -->
  <rect x="37" y="48" width="22" height="26" fill="#FF6B35" rx="4"/>
  
  <!-- 工具带 -->
  <rect x="34" y="56" width="28" height="4" fill="#8B4513"/>
  
  <!-- 锤子 -->
  <rect x="28" y="53" width="8" height="3" fill="#654321"/>
  <rect x="25" y="50" width="6" height="9" fill="#C0C0C0"/>
  
  <!-- 时钟表盘 -->
  <circle cx="68" cy="68" r="16" fill="#FFF" stroke="#333" stroke-width="3"/>
  
  <!-- 时钟刻度 -->
  <line x1="68" y1="54" x2="68" y2="57" stroke="#333" stroke-width="1.5"/>
  <line x1="82" y1="68" x2="79" y2="68" stroke="#333" stroke-width="1.5"/>
  <line x1="68" y1="82" x2="68" y2="79" stroke="#333" stroke-width="1.5"/>
  <line x1="54" y1="68" x2="57" y2="68" stroke="#333" stroke-width="1.5"/>
  
  <!-- 时钟指针 -->
  <line x1="68" y1="68" x2="68" y2="60" stroke="#333" stroke-width="2.5" stroke-linecap="round"/>
  <line x1="68" y1="68" x2="74" y2="68" stroke="#333" stroke-width="2" stroke-linecap="round"/>
  
  <!-- 中心点 -->
  <circle cx="68" cy="68" r="2" fill="#333"/>
</svg>