<svg width="144" height="144" viewBox="0 0 144 144" xmlns="http://www.w3.org/2000/svg">
  <!-- 背景圆形 -->
  <circle cx="72" cy="72" r="68" fill="#409EFF" stroke="#2E7CE8" stroke-width="4"/>
  
  <!-- 建筑工人帽子 -->
  <ellipse cx="72" cy="39" rx="23" ry="15" fill="#FFD700"/>
  <rect x="60" y="31" width="24" height="12" fill="#FFA500" rx="5"/>
  
  <!-- 建筑工人头部 -->
  <circle cx="72" cy="55" r="16" fill="#FFDBAC"/>
  
  <!-- 眼睛 -->
  <circle cx="66" cy="51" r="3" fill="#000"/>
  <circle cx="78" cy="51" r="3" fill="#000"/>
  
  <!-- 嘴巴 -->
  <path d="M 63 60 Q 72 64 81 60" stroke="#000" stroke-width="2" fill="none"/>
  
  <!-- 身体 -->
  <rect x="55" y="71" width="34" height="39" fill="#FF6B35" rx="6"/>
  
  <!-- 工具带 -->
  <rect x="50" y="84" width="44" height="6" fill="#8B4513"/>
  
  <!-- 锤子 -->
  <rect x="41" y="80" width="12" height="5" fill="#654321"/>
  <rect x="36" y="75" width="9" height="15" fill="#C0C0C0"/>
  
  <!-- 时钟表盘 -->
  <circle cx="102" cy="102" r="24" fill="#FFF" stroke="#333" stroke-width="4"/>
  
  <!-- 时钟刻度 -->
  <line x1="102" y1="80" x2="102" y2="85" stroke="#333" stroke-width="2"/>
  <line x1="124" y1="102" x2="119" y2="102" stroke="#333" stroke-width="2"/>
  <line x1="102" y1="124" x2="102" y2="119" stroke="#333" stroke-width="2"/>
  <line x1="80" y1="102" x2="85" y2="102" stroke="#333" stroke-width="2"/>
  
  <!-- 时钟指针 -->
  <line x1="102" y1="102" x2="102" y2="88" stroke="#333" stroke-width="3" stroke-linecap="round"/>
  <line x1="102" y1="102" x2="112" y2="102" stroke="#333" stroke-width="2.5" stroke-linecap="round"/>
  
  <!-- 中心点 -->
  <circle cx="102" cy="102" r="3" fill="#333"/>
</svg>