<svg width="512" height="512" viewBox="0 0 512 512" xmlns="http://www.w3.org/2000/svg">
  <!-- 背景圆形 (maskable safe area) -->
  <circle cx="256" cy="256" r="240" fill="#409EFF" stroke="#2E7CE8" stroke-width="10"/>
  
  <!-- 建筑工人帽子 -->
  <ellipse cx="256" cy="139" rx="80" ry="53" fill="#FFD700"/>
  <rect x="216" y="112" width="80" height="43" fill="#FFA500" rx="16"/>
  
  <!-- 建筑工人头部 -->
  <circle cx="256" cy="195" r="56" fill="#FFDBAC"/>
  
  <!-- 眼睛 -->
  <circle cx="235" cy="181" r="11" fill="#000"/>
  <circle cx="277" cy="181" r="11" fill="#000"/>
  
  <!-- 嘴巴 -->
  <path d="M 221 211 Q 256 224 291 211" stroke="#000" stroke-width="8" fill="none"/>
  
  <!-- 身体 -->
  <rect x="195" y="251" width="122" height="139" fill="#FF6B35" rx="21"/>
  
  <!-- 工具带 -->
  <rect x="179" y="299" width="154" height="21" fill="#8B4513"/>
  
  <!-- 锤子 -->
  <rect x="144" y="283" width="43" height="16" fill="#654321"/>
  <rect x="128" y="267" width="32" height="53" fill="#C0C0C0"/>
  
  <!-- 时钟表盘 -->
  <circle cx="363" cy="363" r="85" fill="#FFF" stroke="#333" stroke-width="11"/>
  
  <!-- 时钟刻度 -->
  <line x1="363" y1="285" x2="363" y2="304" stroke="#333" stroke-width="8"/>
  <line x1="441" y1="363" x2="422" y2="363" stroke="#333" stroke-width="8"/>
  <line x1="363" y1="441" x2="363" y2="422" stroke="#333" stroke-width="8"/>
  <line x1="285" y1="363" x2="304" y2="363" stroke="#333" stroke-width="8"/>
  
  <!-- 时钟指针 -->
  <line x1="363" y1="363" x2="363" y2="315" stroke="#333" stroke-width="11" stroke-linecap="round"/>
  <line x1="363" y1="363" x2="400" y2="363" stroke="#333" stroke-width="8" stroke-linecap="round"/>
  
  <!-- 中心点 -->
  <circle cx="363" cy="363" r="11" fill="#333"/>
</svg>