<svg width="128" height="128" viewBox="0 0 128 128" xmlns="http://www.w3.org/2000/svg">
  <!-- 背景圆形 -->
  <circle cx="64" cy="64" r="60" fill="#409EFF" stroke="#2E7CE8" stroke-width="4"/>
  
  <!-- 建筑工人帽子 -->
  <ellipse cx="64" cy="35" rx="20" ry="13" fill="#FFD700"/>
  <rect x="54" y="28" width="20" height="10" fill="#FFA500" rx="4"/>
  
  <!-- 建筑工人头部 -->
  <circle cx="64" cy="49" r="14" fill="#FFDBAC"/>
  
  <!-- 眼睛 -->
  <circle cx="59" cy="45" r="2.5" fill="#000"/>
  <circle cx="69" cy="45" r="2.5" fill="#000"/>
  
  <!-- 嘴巴 -->
  <path d="M 56 53 Q 64 57 72 53" stroke="#000" stroke-width="2" fill="none"/>
  
  <!-- 身体 -->
  <rect x="49" y="63" width="30" height="35" fill="#FF6B35" rx="5"/>
  
  <!-- 工具带 -->
  <rect x="45" y="75" width="38" height="5" fill="#8B4513"/>
  
  <!-- 锤子 -->
  <rect x="37" y="71" width="10" height="4" fill="#654321"/>
  <rect x="33" y="67" width="8" height="12" fill="#C0C0C0"/>
  
  <!-- 时钟表盘 -->
  <circle cx="90" cy="90" r="21" fill="#FFF" stroke="#333" stroke-width="4"/>
  
  <!-- 时钟刻度 -->
  <line x1="90" y1="71" x2="90" y2="75" stroke="#333" stroke-width="2"/>
  <line x1="109" y1="90" x2="105" y2="90" stroke="#333" stroke-width="2"/>
  <line x1="90" y1="109" x2="90" y2="105" stroke="#333" stroke-width="2"/>
  <line x1="71" y1="90" x2="75" y2="90" stroke="#333" stroke-width="2"/>
  
  <!-- 时钟指针 -->
  <line x1="90" y1="90" x2="90" y2="79" stroke="#333" stroke-width="3" stroke-linecap="round"/>
  <line x1="90" y1="90" x2="99" y2="90" stroke="#333" stroke-width="2.5" stroke-linecap="round"/>
  
  <!-- 中心点 -->
  <circle cx="90" cy="90" r="2.5" fill="#333"/>
</svg>