<svg width="152" height="152" viewBox="0 0 152 152" xmlns="http://www.w3.org/2000/svg">
  <!-- 背景圆形 -->
  <circle cx="76" cy="76" r="72" fill="#409EFF" stroke="#2E7CE8" stroke-width="4"/>
  
  <!-- 建筑工人帽子 -->
  <ellipse cx="76" cy="41" rx="24" ry="16" fill="#FFD700"/>
  <rect x="63" y="33" width="26" height="13" fill="#FFA500" rx="5"/>
  
  <!-- 建筑工人头部 -->
  <circle cx="76" cy="58" r="17" fill="#FFDBAC"/>
  
  <!-- 眼睛 -->
  <circle cx="70" cy="54" r="3" fill="#000"/>
  <circle cx="82" cy="54" r="3" fill="#000"/>
  
  <!-- 嘴巴 -->
  <path d="M 66 63 Q 76 67 86 63" stroke="#000" stroke-width="2" fill="none"/>
  
  <!-- 身体 -->
  <rect x="58" y="75" width="36" height="41" fill="#FF6B35" rx="6"/>
  
  <!-- 工具带 -->
  <rect x="53" y="89" width="46" height="6" fill="#8B4513"/>
  
  <!-- 锤子 -->
  <rect x="43" y="84" width="13" height="5" fill="#654321"/>
  <rect x="38" y="79" width="10" height="16" fill="#C0C0C0"/>
  
  <!-- 时钟表盘 -->
  <circle cx="108" cy="108" r="25" fill="#FFF" stroke="#333" stroke-width="4"/>
  
  <!-- 时钟刻度 -->
  <line x1="108" y1="85" x2="108" y2="90" stroke="#333" stroke-width="2"/>
  <line x1="131" y1="108" x2="126" y2="108" stroke="#333" stroke-width="2"/>
  <line x1="108" y1="131" x2="108" y2="126" stroke="#333" stroke-width="2"/>
  <line x1="85" y1="108" x2="90" y2="108" stroke="#333" stroke-width="2"/>
  
  <!-- 时钟指针 -->
  <line x1="108" y1="108" x2="108" y2="93" stroke="#333" stroke-width="3" stroke-linecap="round"/>
  <line x1="108" y1="108" x2="119" y2="108" stroke="#333" stroke-width="2.5" stroke-linecap="round"/>
  
  <!-- 中心点 -->
  <circle cx="108" cy="108" r="3" fill="#333"/>
</svg>