<svg width="192" height="192" viewBox="0 0 192 192" xmlns="http://www.w3.org/2000/svg">
  <!-- 背景圆形 (maskable safe area) -->
  <circle cx="96" cy="96" r="90" fill="#409EFF" stroke="#2E7CE8" stroke-width="5"/>
  
  <!-- 建筑工人帽子 -->
  <ellipse cx="96" cy="52" rx="30" ry="20" fill="#FFD700"/>
  <rect x="81" y="42" width="30" height="16" fill="#FFA500" rx="6"/>
  
  <!-- 建筑工人头部 -->
  <circle cx="96" cy="73" r="21" fill="#FFDBAC"/>
  
  <!-- 眼睛 -->
  <circle cx="88" cy="68" r="4" fill="#000"/>
  <circle cx="104" cy="68" r="4" fill="#000"/>
  
  <!-- 嘴巴 -->
  <path d="M 83 79 Q 96 84 109 79" stroke="#000" stroke-width="3" fill="none"/>
  
  <!-- 身体 -->
  <rect x="73" y="94" width="46" height="52" fill="#FF6B35" rx="8"/>
  
  <!-- 工具带 -->
  <rect x="67" y="112" width="58" height="8" fill="#8B4513"/>
  
  <!-- 锤子 -->
  <rect x="54" y="106" width="16" height="6" fill="#654321"/>
  <rect x="48" y="100" width="12" height="20" fill="#C0C0C0"/>
  
  <!-- 时钟表盘 -->
  <circle cx="136" cy="136" r="32" fill="#FFF" stroke="#333" stroke-width="5"/>
  
  <!-- 时钟刻度 -->
  <line x1="136" y1="107" x2="136" y2="114" stroke="#333" stroke-width="3"/>
  <line x1="165" y1="136" x2="158" y2="136" stroke="#333" stroke-width="3"/>
  <line x1="136" y1="165" x2="136" y2="158" stroke="#333" stroke-width="3"/>
  <line x1="107" y1="136" x2="114" y2="136" stroke="#333" stroke-width="3"/>
  
  <!-- 时钟指针 -->
  <line x1="136" y1="136" x2="136" y2="118" stroke="#333" stroke-width="4" stroke-linecap="round"/>
  <line x1="136" y1="136" x2="150" y2="136" stroke="#333" stroke-width="3" stroke-linecap="round"/>
  
  <!-- 中心点 -->
  <circle cx="136" cy="136" r="4" fill="#333"/>
</svg>