<svg width="72" height="72" viewBox="0 0 72 72" xmlns="http://www.w3.org/2000/svg">
  <!-- 背景圆形 -->
  <circle cx="36" cy="36" r="34" fill="#409EFF" stroke="#2E7CE8" stroke-width="2"/>
  
  <!-- 建筑工人帽子 -->
  <ellipse cx="36" cy="20" rx="12" ry="8" fill="#FFD700"/>
  <rect x="30" y="16" width="12" height="6" fill="#FFA500" rx="2"/>
  
  <!-- 建筑工人头部 -->
  <circle cx="36" cy="28" r="8" fill="#FFDBAC"/>
  
  <!-- 眼睛 -->
  <circle cx="33" cy="26" r="1.5" fill="#000"/>
  <circle cx="39" cy="26" r="1.5" fill="#000"/>
  
  <!-- 嘴巴 -->
  <path d="M 32 30 Q 36 32 40 30" stroke="#000" stroke-width="1" fill="none"/>
  
  <!-- 身体 -->
  <rect x="28" y="36" width="16" height="20" fill="#FF6B35" rx="3"/>
  
  <!-- 工具带 -->
  <rect x="26" y="42" width="20" height="3" fill="#8B4513"/>
  
  <!-- 锤子 -->
  <rect x="22" y="40" width="6" height="2" fill="#654321"/>
  <rect x="20" y="38" width="4" height="6" fill="#C0C0C0"/>
  
  <!-- 时钟表盘 -->
  <circle cx="50" cy="50" r="12" fill="#FFF" stroke="#333" stroke-width="2"/>
  
  <!-- 时钟刻度 -->
  <line x1="50" y1="40" x2="50" y2="42" stroke="#333" stroke-width="1"/>
  <line x1="60" y1="50" x2="58" y2="50" stroke="#333" stroke-width="1"/>
  <line x1="50" y1="60" x2="50" y2="58" stroke="#333" stroke-width="1"/>
  <line x1="40" y1="50" x2="42" y2="50" stroke="#333" stroke-width="1"/>
  
  <!-- 时钟指针 -->
  <line x1="50" y1="50" x2="50" y2="45" stroke="#333" stroke-width="2" stroke-linecap="round"/>
  <line x1="50" y1="50" x2="54" y2="50" stroke="#333" stroke-width="1.5" stroke-linecap="round"/>
  
  <!-- 中心点 -->
  <circle cx="50" cy="50" r="1.5" fill="#333"/>
</svg>